<?xml version="1.0" encoding="UTF-8"?><svg xmlns="http://www.w3.org/2000/svg" xmlns:xlink="http://www.w3.org/1999/xlink" width="146.25pt" zoomAndPan="magnify" viewBox="0 0 146.25 30.000001" height="30.000001pt" preserveAspectRatio="xMidYMid meet" version="1.2"><defs><g/><clipPath xml:id="clip1" id="clip1"><path d="M 15 19 L 22 19 L 22 26.128906 L 15 26.128906 Z M 15 19 "/></clipPath><clipPath xml:id="clip2" id="clip2"><path d="M 10.933594 5 L 14 5 L 14 9 L 10.933594 9 Z M 10.933594 5 "/></clipPath><clipPath xml:id="clip3" id="clip3"><path d="M 18 2.902344 L 20 2.902344 L 20 6 L 18 6 Z M 18 2.902344 "/></clipPath><clipPath xml:id="clip4" id="clip4"><path d="M 24 7 L 26.796875 7 L 26.796875 9 L 24 9 Z M 24 7 "/></clipPath></defs><g xml:id="surface1" id="surface1"><path style=" stroke:none;fill-rule:nonzero;fill:rgb(97.648621%,70.199585%,27.839661%);fill-opacity:1;" d="M 12.5625 12.957031 C 12.59375 11.46875 12.984375 9.464844 14.859375 8.121094 C 15.296875 7.804688 15.785156 7.558594 16.28125 7.355469 C 17.996094 6.660156 20.046875 6.4375 21.617188 7.425781 C 22.136719 7.746094 22.574219 8.1875 22.964844 8.660156 C 23.792969 9.671875 24.421875 10.878906 24.621094 12.179688 C 24.820312 13.480469 24.558594 14.878906 23.777344 15.925781 C 22.925781 17.066406 21.515625 17.753906 20.945312 19.0625 C 20.398438 20.3125 20.773438 21.792969 20.40625 23.109375 C 20.375 23.222656 20.332031 23.34375 20.246094 23.421875 C 20.136719 23.519531 19.984375 23.535156 19.839844 23.546875 C 19.347656 23.585938 18.859375 23.625 18.367188 23.664062 C 15.292969 23.914062 16.007812 21.289062 15.402344 19.148438 C 14.710938 16.703125 12.5 15.605469 12.5625 12.957031 Z M 12.5625 12.957031 "/><g clip-rule="nonzero" clip-path="url(#clip1)"><path style=" stroke:none;fill-rule:nonzero;fill:rgb(79.219055%,87.449646%,87.449646%);fill-opacity:1;" d="M 20.835938 19.738281 C 20.917969 19.734375 21.015625 19.730469 21.070312 19.800781 C 21.105469 19.84375 21.113281 19.90625 21.113281 19.964844 C 21.148438 20.832031 21.179688 21.699219 21.214844 22.570312 C 21.226562 22.851562 21.238281 23.144531 21.140625 23.410156 C 20.875 24.140625 19.925781 24.421875 19.667969 25.152344 C 19.578125 25.414062 19.644531 25.3125 19.507812 25.550781 C 19.308594 25.902344 18.867188 26.019531 18.472656 26.085938 C 18.046875 26.152344 17.597656 26.199219 17.195312 26.042969 C 17.035156 25.984375 16.875 25.878906 16.824219 25.714844 C 16.773438 25.558594 16.832031 25.382812 16.828125 25.21875 C 16.816406 24.929688 16.550781 25.082031 16.324219 24.90625 C 16.101562 24.734375 15.84375 24.59375 15.65625 24.378906 C 15.21875 23.878906 15.261719 23.125 15.195312 22.457031 C 15.113281 21.621094 14.796875 20.160156 15.878906 19.804688 C 16.195312 19.699219 16.5625 19.816406 16.886719 19.847656 C 17.464844 19.898438 18.058594 19.863281 18.636719 19.847656 C 19.371094 19.828125 20.105469 19.792969 20.835938 19.738281 Z M 20.835938 19.738281 "/></g><path style="fill:none;stroke-width:5;stroke-linecap:round;stroke-linejoin:round;stroke:rgb(7.839966%,27.839661%,47.059631%);stroke-opacity:1;stroke-miterlimit:10;" d="M 197.1457 267.536257 C 197.633713 251.818622 190.845898 236.925946 184.501732 222.554296 C 183.126423 219.514974 182.194762 215.129667 185.078474 213.47975 C 186.719972 212.567953 188.893847 213.175817 190.313521 214.478384 C 191.733194 215.737531 192.531761 217.517706 193.330327 219.211042 C 194.040164 220.860959 195.238013 222.77139 197.012605 222.597715 C 197.811172 222.510877 198.521009 221.98985 199.142116 221.425405 C 201.759639 219.211042 204.110974 216.736166 206.151754 214.000776 C 207.793252 216.041464 209.479114 218.212408 211.830449 219.471555 C 214.181783 220.730703 217.331684 220.904378 219.3281 219.124204 C 220.348491 218.212408 221.058327 216.823003 222.344907 216.301977 C 224.385687 215.563856 226.559563 217.604543 226.781387 219.775487 C 227.003211 221.946431 225.894091 223.987119 224.829335 225.854131 C 217.642238 238.619282 210.100222 252.643581 212.451556 267.05865 " transform="matrix(0.0880484,0,0,0.0899666,0.137729,-4.456051)"/><g clip-rule="nonzero" clip-path="url(#clip2)"><path style="fill:none;stroke-width:5;stroke-linecap:round;stroke-linejoin:round;stroke:rgb(7.839966%,27.839661%,47.059631%);stroke-opacity:1;stroke-miterlimit:10;" d="M 144.92833 139.884745 C 143.81921 137.279612 141.911523 135.152087 140.003837 133.06798 C 135.212438 127.770877 130.287946 122.560611 125.230358 117.524021 C 125.89583 117.437183 126.561302 117.56744 127.09368 117.95821 " transform="matrix(0.0880484,0,0,0.0899666,0.137729,-4.456051)"/></g><path style="fill:none;stroke-width:5;stroke-linecap:round;stroke-linejoin:round;stroke:rgb(7.839966%,27.839661%,47.059631%);stroke-opacity:1;stroke-miterlimit:10;" d="M 178.335024 116.438549 C 178.734308 116.178035 178.689943 115.570171 178.512484 115.092563 C 175.806231 106.061436 170.52682 97.725011 169.772618 88.346532 " transform="matrix(0.0880484,0,0,0.0899666,0.137729,-4.456051)"/><g clip-rule="nonzero" clip-path="url(#clip3)"><path style="fill:none;stroke-width:5;stroke-linecap:round;stroke-linejoin:round;stroke:rgb(7.839966%,27.839661%,47.059631%);stroke-opacity:1;stroke-miterlimit:10;" d="M 214.447972 109.925716 C 213.959959 101.459035 215.512727 92.862096 218.840087 85.046697 " transform="matrix(0.0880484,0,0,0.0899666,0.137729,-4.456051)"/></g><path style="fill:none;stroke-width:5;stroke-linecap:round;stroke-linejoin:round;stroke:rgb(7.839966%,27.839661%,47.059631%);stroke-opacity:1;stroke-miterlimit:10;" d="M 253.932645 122.777706 C 258.014206 114.918888 262.361957 107.277165 266.975896 99.722279 C 267.552638 100.4604 267.730097 101.459035 267.463909 102.327412 " transform="matrix(0.0880484,0,0,0.0899666,0.137729,-4.456051)"/><g clip-rule="nonzero" clip-path="url(#clip4)"><path style="fill:none;stroke-width:5;stroke-linecap:round;stroke-linejoin:round;stroke:rgb(7.839966%,27.839661%,47.059631%);stroke-opacity:1;stroke-miterlimit:10;" d="M 279.087486 144.74766 C 278.954392 145.095011 279.619864 145.095011 279.930418 144.921335 C 286.851327 140.275515 293.550411 135.325762 299.938943 130.028659 " transform="matrix(0.0880484,0,0,0.0899666,0.137729,-4.456051)"/></g><path style="fill:none;stroke-width:5;stroke-linecap:round;stroke-linejoin:round;stroke:rgb(7.839966%,27.839661%,47.059631%);stroke-opacity:1;stroke-miterlimit:10;" d="M 174.697111 310.781464 C 181.351831 312.170868 188.228375 313.560272 194.794365 311.997192 " transform="matrix(0.0880484,0,0,0.0899666,0.137729,-4.456051)"/><path style="fill:none;stroke-width:5;stroke-linecap:round;stroke-linejoin:round;stroke:rgb(7.839966%,27.839661%,47.059631%);stroke-opacity:1;stroke-miterlimit:10;" d="M 175.096394 298.276826 C 178.556848 298.711014 182.061668 299.101784 185.522122 299.535973 " transform="matrix(0.0880484,0,0,0.0899666,0.137729,-4.456051)"/><path style="fill:none;stroke-width:5;stroke-linecap:round;stroke-linejoin:round;stroke:rgb(7.839966%,27.839661%,47.059631%);stroke-opacity:1;stroke-miterlimit:10;" d="M 215.912011 299.66623 C 218.440804 299.492554 220.969598 299.318879 223.498391 299.145203 C 227.491223 298.88469 231.61715 298.580758 235.077604 296.626908 " transform="matrix(0.0880484,0,0,0.0899666,0.137729,-4.456051)"/><path style="fill:none;stroke-width:5;stroke-linecap:round;stroke-linejoin:round;stroke:rgb(7.839966%,27.839661%,47.059631%);stroke-opacity:1;stroke-miterlimit:10;" d="M 218.21898 314.558906 C 221.590705 312.822151 225.317348 311.69326 229.088356 311.259071 " transform="matrix(0.0880484,0,0,0.0899666,0.137729,-4.456051)"/><g style="fill:rgb(0%,0%,0%);fill-opacity:1;"><g transform="translate(27.09173, 11.661457)"><path style="stroke:none;" d="M 0.425781 0 L 1.046875 0 L 1.046875 -5.964844 L 0.425781 -5.964844 Z M 0.425781 0 "/></g></g><g style="fill:rgb(0%,0%,0%);fill-opacity:1;"><g transform="translate(28.563676, 11.661457)"><path style="stroke:none;" d="M 4.527344 -5.964844 L 4.527344 -0.992188 L 1.113281 -5.964844 L 0.425781 -5.964844 L 0.425781 0 L 1.046875 0 L 1.046875 -4.972656 L 4.460938 0 L 5.148438 0 L 5.148438 -5.964844 Z M 4.527344 -5.964844 "/></g></g><g style="fill:rgb(0%,0%,0%);fill-opacity:1;"><g transform="translate(34.137909, 11.661457)"><path style="stroke:none;" d="M 4.527344 -5.964844 L 4.527344 -0.992188 L 1.113281 -5.964844 L 0.425781 -5.964844 L 0.425781 0 L 1.046875 0 L 1.046875 -4.972656 L 4.460938 0 L 5.148438 0 L 5.148438 -5.964844 Z M 4.527344 -5.964844 "/></g></g><g style="fill:rgb(0%,0%,0%);fill-opacity:1;"><g transform="translate(39.712141, 11.661457)"><path style="stroke:none;" d="M 3.25 0.121094 C 4.816406 0.121094 6.089844 -1.261719 6.089844 -2.96875 C 6.089844 -4.667969 4.816406 -6.042969 3.25 -6.042969 C 1.691406 -6.042969 0.425781 -4.667969 0.425781 -2.96875 C 0.425781 -1.273438 1.699219 0.121094 3.25 0.121094 Z M 3.25 -0.496094 C 2.03125 -0.496094 1.046875 -1.601562 1.046875 -2.96875 C 1.046875 -4.328125 2.03125 -5.425781 3.25 -5.425781 C 4.476562 -5.425781 5.46875 -4.328125 5.46875 -2.96875 C 5.46875 -1.601562 4.476562 -0.496094 3.25 -0.496094 Z M 3.25 -0.496094 "/></g></g><g style="fill:rgb(0%,0%,0%);fill-opacity:1;"><g transform="translate(46.227022, 11.661457)"><path style="stroke:none;" d="M 2.648438 0 L 3.335938 0 L 5.558594 -5.964844 L 4.902344 -5.964844 L 2.988281 -0.828125 L 1.078125 -5.964844 L 0.425781 -5.964844 Z M 2.648438 0 "/></g></g><g style="fill:rgb(0%,0%,0%);fill-opacity:1;"><g transform="translate(52.210617, 11.661457)"><path style="stroke:none;" d="M 0.417969 0 L 1.078125 0 L 1.636719 -1.5 L 4.519531 -1.5 L 5.078125 0 L 5.738281 0 L 3.335938 -5.964844 L 2.832031 -5.964844 Z M 1.871094 -2.109375 L 3.082031 -5.183594 L 4.285156 -2.109375 Z M 1.871094 -2.109375 "/></g></g><g style="fill:rgb(0%,0%,0%);fill-opacity:1;"><g transform="translate(58.377115, 11.661457)"><path style="stroke:none;" d="M 2.5625 0 L 3.179688 0 L 3.179688 -5.347656 L 5.304688 -5.347656 L 5.304688 -5.964844 L 0.425781 -5.964844 L 0.425781 -5.347656 L 2.5625 -5.347656 Z M 2.5625 0 "/></g></g><g style="fill:rgb(0%,0%,0%);fill-opacity:1;"><g transform="translate(64.108124, 11.661457)"><path style="stroke:none;" d="M 0.425781 0 L 1.046875 0 L 1.046875 -5.964844 L 0.425781 -5.964844 Z M 0.425781 0 "/></g></g><g style="fill:rgb(0%,0%,0%);fill-opacity:1;"><g transform="translate(65.58007, 11.661457)"><path style="stroke:none;" d="M 3.25 0.121094 C 4.816406 0.121094 6.089844 -1.261719 6.089844 -2.96875 C 6.089844 -4.667969 4.816406 -6.042969 3.25 -6.042969 C 1.691406 -6.042969 0.425781 -4.667969 0.425781 -2.96875 C 0.425781 -1.273438 1.699219 0.121094 3.25 0.121094 Z M 3.25 -0.496094 C 2.03125 -0.496094 1.046875 -1.601562 1.046875 -2.96875 C 1.046875 -4.328125 2.03125 -5.425781 3.25 -5.425781 C 4.476562 -5.425781 5.46875 -4.328125 5.46875 -2.96875 C 5.46875 -1.601562 4.476562 -0.496094 3.25 -0.496094 Z M 3.25 -0.496094 "/></g></g><g style="fill:rgb(0%,0%,0%);fill-opacity:1;"><g transform="translate(72.094952, 11.661457)"><path style="stroke:none;" d="M 4.527344 -5.964844 L 4.527344 -0.992188 L 1.113281 -5.964844 L 0.425781 -5.964844 L 0.425781 0 L 1.046875 0 L 1.046875 -4.972656 L 4.460938 0 L 5.148438 0 L 5.148438 -5.964844 Z M 4.527344 -5.964844 "/></g></g><g style="fill:rgb(0%,0%,0%);fill-opacity:1;"><g transform="translate(77.669184, 11.661457)"><path style="stroke:none;" d=""/></g></g><g style="fill:rgb(0%,0%,0%);fill-opacity:1;"><g transform="translate(80.465006, 11.661457)"><path style="stroke:none;" d="M 5.53125 -5.964844 L 3.320312 -2.386719 L 1.089844 -5.964844 L 0.425781 -5.964844 L 0.425781 0 L 1.046875 0 L 1.046875 -4.867188 L 3.03125 -1.679688 L 3.597656 -1.679688 L 5.582031 -4.886719 L 5.582031 0 L 6.191406 0 L 6.191406 -5.964844 Z M 5.53125 -5.964844 "/></g></g><g style="fill:rgb(0%,0%,0%);fill-opacity:1;"><g transform="translate(87.084412, 11.661457)"><path style="stroke:none;" d="M 0.417969 0 L 1.078125 0 L 1.636719 -1.5 L 4.519531 -1.5 L 5.078125 0 L 5.738281 0 L 3.335938 -5.964844 L 2.832031 -5.964844 Z M 1.871094 -2.109375 L 3.082031 -5.183594 L 4.285156 -2.109375 Z M 1.871094 -2.109375 "/></g></g><g style="fill:rgb(0%,0%,0%);fill-opacity:1;"><g transform="translate(93.25091, 11.661457)"><path style="stroke:none;" d="M 4.527344 -5.964844 L 4.527344 -0.992188 L 1.113281 -5.964844 L 0.425781 -5.964844 L 0.425781 0 L 1.046875 0 L 1.046875 -4.972656 L 4.460938 0 L 5.148438 0 L 5.148438 -5.964844 Z M 4.527344 -5.964844 "/></g></g><g style="fill:rgb(0%,0%,0%);fill-opacity:1;"><g transform="translate(98.825142, 11.661457)"><path style="stroke:none;" d="M 0.417969 0 L 1.078125 0 L 1.636719 -1.5 L 4.519531 -1.5 L 5.078125 0 L 5.738281 0 L 3.335938 -5.964844 L 2.832031 -5.964844 Z M 1.871094 -2.109375 L 3.082031 -5.183594 L 4.285156 -2.109375 Z M 1.871094 -2.109375 "/></g></g><g style="fill:rgb(0%,0%,0%);fill-opacity:1;"><g transform="translate(104.99164, 11.661457)"><path style="stroke:none;" d="M 3.1875 0.121094 C 3.476562 0.121094 3.78125 0.0703125 4.042969 -0.0351562 C 4.433594 -0.175781 4.78125 -0.425781 5.070312 -0.765625 L 5.070312 0 L 5.6875 0 L 5.6875 -3.285156 L 3.1875 -3.285156 L 3.1875 -2.675781 L 5.070312 -2.675781 L 5.070312 -2.457031 L 5.035156 -2.195312 C 4.957031 -1.472656 4.484375 -0.855469 3.832031 -0.617188 C 3.625 -0.539062 3.398438 -0.496094 3.1875 -0.496094 C 2.003906 -0.496094 1.046875 -1.601562 1.046875 -2.960938 C 1.046875 -4.320312 2.003906 -5.425781 3.1875 -5.425781 C 3.929688 -5.425781 4.597656 -5 5 -4.269531 L 5.539062 -4.5625 C 5.042969 -5.488281 4.15625 -6.042969 3.1875 -6.042969 C 1.664062 -6.042969 0.425781 -4.660156 0.425781 -2.960938 C 0.425781 -1.261719 1.664062 0.121094 3.1875 0.121094 Z M 3.1875 0.121094 "/></g></g><g style="fill:rgb(0%,0%,0%);fill-opacity:1;"><g transform="translate(111.105874, 11.661457)"><path style="stroke:none;" d="M 0.425781 0 L 4.78125 0 L 4.78125 -0.617188 L 1.046875 -0.617188 L 1.046875 -2.691406 L 4.09375 -2.691406 L 4.09375 -3.300781 L 1.046875 -3.300781 L 1.046875 -5.347656 L 4.78125 -5.347656 L 4.78125 -5.964844 L 0.425781 -5.964844 Z M 0.425781 0 "/></g></g><g style="fill:rgb(0%,0%,0%);fill-opacity:1;"><g transform="translate(116.314302, 11.661457)"><path style="stroke:none;" d="M 5.53125 -5.964844 L 3.320312 -2.386719 L 1.089844 -5.964844 L 0.425781 -5.964844 L 0.425781 0 L 1.046875 0 L 1.046875 -4.867188 L 3.03125 -1.679688 L 3.597656 -1.679688 L 5.582031 -4.886719 L 5.582031 0 L 6.191406 0 L 6.191406 -5.964844 Z M 5.53125 -5.964844 "/></g></g><g style="fill:rgb(0%,0%,0%);fill-opacity:1;"><g transform="translate(122.933709, 11.661457)"><path style="stroke:none;" d="M 0.425781 0 L 4.78125 0 L 4.78125 -0.617188 L 1.046875 -0.617188 L 1.046875 -2.691406 L 4.09375 -2.691406 L 4.09375 -3.300781 L 1.046875 -3.300781 L 1.046875 -5.347656 L 4.78125 -5.347656 L 4.78125 -5.964844 L 0.425781 -5.964844 Z M 0.425781 0 "/></g></g><g style="fill:rgb(0%,0%,0%);fill-opacity:1;"><g transform="translate(128.142136, 11.661457)"><path style="stroke:none;" d="M 4.527344 -5.964844 L 4.527344 -0.992188 L 1.113281 -5.964844 L 0.425781 -5.964844 L 0.425781 0 L 1.046875 0 L 1.046875 -4.972656 L 4.460938 0 L 5.148438 0 L 5.148438 -5.964844 Z M 4.527344 -5.964844 "/></g></g><g style="fill:rgb(0%,0%,0%);fill-opacity:1;"><g transform="translate(133.716369, 11.661457)"><path style="stroke:none;" d="M 2.5625 0 L 3.179688 0 L 3.179688 -5.347656 L 5.304688 -5.347656 L 5.304688 -5.964844 L 0.425781 -5.964844 L 0.425781 -5.347656 L 2.5625 -5.347656 Z M 2.5625 0 "/></g></g><g style="fill:rgb(0%,0%,0%);fill-opacity:1;"><g transform="translate(70.152465, 23.27436)"><path style="stroke:none;" d=""/></g></g><g style="fill:rgb(0%,0%,0%);fill-opacity:1;"><g transform="translate(72.942284, 23.27436)"><path style="stroke:none;" d="M 2.5625 0 L 3.179688 0 L 3.179688 -5.347656 L 5.304688 -5.347656 L 5.304688 -5.964844 L 0.425781 -5.964844 L 0.425781 -5.347656 L 2.5625 -5.347656 Z M 2.5625 0 "/></g></g><g style="fill:rgb(0%,0%,0%);fill-opacity:1;"><g transform="translate(78.673293, 23.27436)"><path style="stroke:none;" d="M 3.25 0.121094 C 4.816406 0.121094 6.089844 -1.261719 6.089844 -2.96875 C 6.089844 -4.667969 4.816406 -6.042969 3.25 -6.042969 C 1.691406 -6.042969 0.425781 -4.667969 0.425781 -2.96875 C 0.425781 -1.273438 1.699219 0.121094 3.25 0.121094 Z M 3.25 -0.496094 C 2.03125 -0.496094 1.046875 -1.601562 1.046875 -2.96875 C 1.046875 -4.328125 2.03125 -5.425781 3.25 -5.425781 C 4.476562 -5.425781 5.46875 -4.328125 5.46875 -2.96875 C 5.46875 -1.601562 4.476562 -0.496094 3.25 -0.496094 Z M 3.25 -0.496094 "/></g></g><g style="fill:rgb(0%,0%,0%);fill-opacity:1;"><g transform="translate(85.188174, 23.27436)"><path style="stroke:none;" d="M 3.25 0.121094 C 4.816406 0.121094 6.089844 -1.261719 6.089844 -2.96875 C 6.089844 -4.667969 4.816406 -6.042969 3.25 -6.042969 C 1.691406 -6.042969 0.425781 -4.667969 0.425781 -2.96875 C 0.425781 -1.273438 1.699219 0.121094 3.25 0.121094 Z M 3.25 -0.496094 C 2.03125 -0.496094 1.046875 -1.601562 1.046875 -2.96875 C 1.046875 -4.328125 2.03125 -5.425781 3.25 -5.425781 C 4.476562 -5.425781 5.46875 -4.328125 5.46875 -2.96875 C 5.46875 -1.601562 4.476562 -0.496094 3.25 -0.496094 Z M 3.25 -0.496094 "/></g></g><g style="fill:rgb(0%,0%,0%);fill-opacity:1;"><g transform="translate(91.703056, 23.27436)"><path style="stroke:none;" d="M 0.425781 0 L 4.257812 0 L 4.257812 -0.617188 L 1.046875 -0.617188 L 1.046875 -5.964844 L 0.425781 -5.964844 Z M 0.425781 0 "/></g></g></g></svg>